<?xml version="1.0" encoding="UTF-8" standalone="no"?>
<!-- Created with Inkscape (http://www.inkscape.org/) -->
<svg
   xmlns:dc="http://purl.org/dc/elements/1.1/"
   xmlns:cc="http://creativecommons.org/ns#"
   xmlns:rdf="http://www.w3.org/1999/02/22-rdf-syntax-ns#"
   xmlns:svg="http://www.w3.org/2000/svg"
   xmlns="http://www.w3.org/2000/svg"
   xmlns:xlink="http://www.w3.org/1999/xlink"
   xmlns:sodipodi="http://sodipodi.sourceforge.net/DTD/sodipodi-0.dtd"
   xmlns:inkscape="http://www.inkscape.org/namespaces/inkscape"
   height="128.00000pt"
   id="svg1"
   inkscape:version="0.46"
   sodipodi:docbase="/home/andy/Desktop/etiquette-icons-0.3/scalable/mimetypes"
   sodipodi:docname="gnome-mime-text-x-java.svg"
   sodipodi:version="0.32"
   width="128.00000pt"
   inkscape:output_extension="org.inkscape.output.svg.inkscape"
   inkscape:export-filename="C:\Documents and Settings\All Users\Documents\Ubuntu Brig\Andy Fitzsimon\gnome-mime-text-x-java.png"
   inkscape:export-xdpi="90"
   inkscape:export-ydpi="90">
  <metadata
     id="metadata3">
    <rdf:RDF>
      <cc:Work
         rdf:about="">
        <dc:title>Etiquette Icons</dc:title>
        <dc:description />
        <dc:subject>
          <rdf:Bag>
            <rdf:li>hash</rdf:li>
            <rdf:li />
            <rdf:li>mime-types</rdf:li>
            <rdf:li>computer</rdf:li>
            <rdf:li>icons</rdf:li>
          </rdf:Bag>
        </dc:subject>
        <dc:publisher>
          <cc:Agent
             rdf:about="http://www.openclipart.org">
            <dc:title>Andy Fitzsimon</dc:title>
          </cc:Agent>
        </dc:publisher>
        <dc:creator>
          <cc:Agent>
            <dc:title>Andy Fitzsimon</dc:title>
          </cc:Agent>
        </dc:creator>
        <dc:rights>
          <cc:Agent>
            <dc:title>Andy Fitzsimon</dc:title>
          </cc:Agent>
        </dc:rights>
        <dc:date />
        <dc:format>image/svg+xml</dc:format>
        <dc:type
           rdf:resource="http://purl.org/dc/dcmitype/StillImage" />
        <cc:license
           rdf:resource="http://web.resource.org/cc/PublicDomain" />
        <dc:language>en</dc:language>
      </cc:Work>
      <cc:License
         rdf:about="http://web.resource.org/cc/PublicDomain">
        <cc:permits
           rdf:resource="http://web.resource.org/cc/Reproduction" />
        <cc:permits
           rdf:resource="http://web.resource.org/cc/Distribution" />
        <cc:permits
           rdf:resource="http://web.resource.org/cc/DerivativeWorks" />
      </cc:License>
    </rdf:RDF>
  </metadata>
  <defs
     id="defs3">
    <inkscape:perspective
       sodipodi:type="inkscape:persp3d"
       inkscape:vp_x="0 : 80 : 1"
       inkscape:vp_y="0 : 1000 : 0"
       inkscape:vp_z="160 : 80 : 1"
       inkscape:persp3d-origin="80 : 53.333333 : 1"
       id="perspective80" />
    <linearGradient
       id="linearGradient852"
       x1="0.56179774"
       x2="0.63483149"
       xlink:href="#linearGradient841"
       y1="-1.0294118"
       y2="0.50735295" />
    <linearGradient
       id="linearGradient844"
       xlink:href="#linearGradient841" />
    <linearGradient
       id="linearGradient845"
       x1="1.3833333"
       x2="0.10833333"
       xlink:href="#linearGradient841"
       y1="0.49019608"
       y2="0.50490195" />
    <linearGradient
       id="linearGradient840"
       x1="-0.22348484"
       x2="0.59469700"
       xlink:href="#linearGradient853"
       y1="0.38235295"
       y2="0.46568626" />
    <linearGradient
       id="linearGradient849"
       x1="0.010563380"
       x2="1.2288733"
       xlink:href="#linearGradient846"
       y1="0.43229166"
       y2="0.46354166" />
    <radialGradient
       cx="0.50000000"
       cy="0.50000000"
       fx="0.50000000"
       fy="0.14942528"
       id="radialGradient864"
       r="0.50000000"
       xlink:href="#linearGradient853" />
    <linearGradient
       id="linearGradient841">
      <stop
         id="stop842"
         offset="0.00000000"
         style="stop-color:#ffffff;stop-opacity:1.0000000;" />
      <stop
         id="stop843"
         offset="1.0000000"
         style="stop-color:#ffffff;stop-opacity:0.00000000;" />
    </linearGradient>
    <linearGradient
       id="linearGradient1290">
      <stop
         id="stop1291"
         offset="0.0000000"
         style="stop-color:#b2a269;stop-opacity:1.0000000;" />
      <stop
         id="stop1292"
         offset="1.0000000"
         style="stop-color:#6d5b18;stop-opacity:1.0000000;" />
    </linearGradient>
    <linearGradient
       id="linearGradient860"
       x1="0.47535211"
       x2="0.50000000"
       xlink:href="#linearGradient1290"
       y1="0.81081080"
       y2="-0.74324322" />
    <linearGradient
       id="linearGradient851"
       x1="0.39788732"
       x2="0.80985916"
       xlink:href="#linearGradient846"
       y1="0.32222223"
       y2="0.35555556" />
    <linearGradient
       id="linearGradient858"
       x1="0.64285713"
       x2="0.57142860"
       xlink:href="#linearGradient846"
       y1="1.2647059"
       y2="0.049019609" />
    <linearGradient
       id="linearGradient846">
      <stop
         id="stop847"
         offset="0.00000000"
         style="stop-color:#e7e7e7;stop-opacity:1.0000000;" />
      <stop
         id="stop848"
         offset="1.0000000"
         style="stop-color:#a5a5a5;stop-opacity:1.0000000;" />
    </linearGradient>
    <linearGradient
       id="linearGradient850"
       xlink:href="#linearGradient846" />
    <linearGradient
       id="linearGradient859"
       x1="1.4647887"
       x2="0.26408452"
       xlink:href="#linearGradient853"
       y1="-1.1486486"
       y2="1.2905406" />
    <linearGradient
       id="linearGradient853">
      <stop
         id="stop854"
         offset="0.00000000"
         style="stop-color:#000000;stop-opacity:0.29752067;" />
      <stop
         id="stop855"
         offset="1.0000000"
         style="stop-color:#000000;stop-opacity:0.00000000;" />
    </linearGradient>
    <radialGradient
       cx="0.50000000"
       cy="0.50000000"
       fx="0.50704223"
       fy="0.29885057"
       id="radialGradient861"
       r="0.50000000"
       xlink:href="#linearGradient853" />
    <linearGradient
       id="linearGradient1507">
      <stop
         id="stop1508"
         offset="0.0000000"
         style="stop-color:#000000;stop-opacity:0.095505618;" />
      <stop
         id="stop1510"
         offset="1.0000000"
         style="stop-color:#000000;stop-opacity:0.0000000;" />
    </linearGradient>
    <linearGradient
       id="linearGradient1501">
      <stop
         id="stop1502"
         offset="0.0000000"
         style="stop-color:#ffffff;stop-opacity:1.0000000;" />
      <stop
         id="stop1504"
         offset="1.0000000"
         style="stop-color:#ffffff;stop-opacity:0.0000000;" />
    </linearGradient>
    <linearGradient
       id="linearGradient1492">
      <stop
         id="stop1493"
         offset="0.0000000"
         style="stop-color:#dadada;stop-opacity:1.0000000;" />
      <stop
         id="stop1496"
         offset="0.34923077"
         style="stop-color:#f1f1f1;stop-opacity:1.0000000;" />
      <stop
         id="stop1494"
         offset="1.0000000"
         style="stop-color:#f0f0f0;stop-opacity:1.0000000;" />
    </linearGradient>
    <linearGradient
       id="linearGradient1495"
       x1="0.88034189"
       x2="0.085470088"
       xlink:href="#linearGradient1492"
       y1="0.21093750"
       y2="1.1796875" />
    <linearGradient
       id="linearGradient1497"
       x1="0.63247865"
       x2="-0.37606838"
       xlink:href="#linearGradient1492"
       y1="0.32812500"
       y2="1.3281250" />
    <linearGradient
       id="linearGradient1499"
       x1="0.85826772"
       x2="0.062992126"
       xlink:href="#linearGradient1501"
       y1="0.14062500"
       y2="0.54687500" />
    <linearGradient
       id="linearGradient1506"
       x1="0.052173913"
       x2="0.78260869"
       xlink:href="#linearGradient1507"
       y1="0.97656250"
       y2="0.0078125000" />
    <linearGradient
       id="linearGradient1556"
       x1="0.31111112"
       x2="0.62222224"
       xlink:href="#linearGradient1507"
       y1="-0.56250000"
       y2="0.79687500" />
    <radialGradient
       cx="0.50000000"
       cy="0.89285713"
       fx="0.54117650"
       fy="3.5200000"
       id="radialGradient856"
       r="0.54606670"
       xlink:href="#linearGradient841" />
    <linearGradient
       id="linearGradient1944"
       xlink:href="#linearGradient841" />
  </defs>
  <sodipodi:namedview
     bordercolor="#666666"
     borderopacity="1.0"
     id="base"
     inkscape:cx="71.308579"
     inkscape:cy="71.321665"
     inkscape:pageopacity="0.0"
     inkscape:pageshadow="2"
     inkscape:window-height="667"
     inkscape:window-width="573"
     inkscape:window-x="321"
     inkscape:window-y="27"
     inkscape:zoom="1.5129147"
     pagecolor="#ffffff"
     showgrid="false"
     inkscape:current-layer="svg1" />
  <path
     d="M 17.159384,6.3292894 L 17.159384,43.068526 L 17.159384,79.807768 L 17.159384,116.54700 L 17.159384,153.28624 L 50.687024,153.28624 L 84.214664,153.28624 L 117.74230,153.28624 L 151.26994,153.28624 L 151.26994,116.54700 L 151.26994,79.807768 L 151.26994,43.068526 L 117.74230,6.3292894 L 84.214664,6.3292894 L 50.687024,6.3292894 L 17.159384,6.3292894 z "
     id="path930"
     sodipodi:nodetypes="cccccccccccccccc"
     style="fill:#ffffff;fill-rule:evenodd;stroke-width:0.42649043;stroke-opacity:0.36477986;" />
  <g
     id="g1552"
     style="fill:url(#linearGradient1506);"
     transform="matrix(0.304171,0.000000,0.000000,0.297572,-36.70399,-112.4880)">
    <path
       d="M 173.35959,408.81260 L 173.35959,531.07360 L 173.35959,653.33460 L 173.35959,775.59560 L 173.35959,897.85660 L 282.12187,897.85660 L 390.88417,897.85660 L 499.64646,897.85660 L 608.40874,897.85660 L 608.40874,775.59560 L 608.40874,653.33460 L 608.40874,531.07360 L 499.64646,408.81260 L 390.88417,408.81260 L 282.12187,408.81260 L 173.35959,408.81260 z "
       id="path1505"
       sodipodi:nodetypes="cccccccccccccccc"
       style="fill-opacity:0.75000000;fill-rule:evenodd;stroke-width:0.95407495pt;" />
    <path
       d="M 170.12500,407.18750 C 170.12500,571.82292 170.12500,736.45833 170.12500,901.09375 C 317.30208,901.09375 464.47917,901.09375 611.65625,901.09375 C 611.65625,777.33333 611.65625,653.57292 611.65625,529.81250 C 574.80918,488.38978 537.97604,446.95335 501.09375,405.56250 C 390.77083,405.56250 280.44792,405.56250 170.12500,405.56250 C 170.12500,405.89583 170.12500,406.97917 170.12500,407.18750 z "
       id="path1538"
       style="fill-opacity:0.75000000;fill-rule:evenodd;stroke-width:0.95407495pt;" />
    <path
       d="M 166.87500,403.93750 C 166.87500,570.73958 166.87500,737.54167 166.87500,904.34375 C 316.21875,904.34375 465.56250,904.34375 614.90625,904.34375 C 614.90625,779.08333 614.90625,653.82292 614.90625,528.56250 C 577.45517,486.47298 540.01754,444.37017 502.53125,402.31250 C 390.64583,402.31250 278.76042,402.31250 166.87500,402.31250 C 166.87500,402.64583 166.87500,403.72917 166.87500,403.93750 z "
       id="path1543"
       style="fill-opacity:0.75000000;fill-rule:evenodd;stroke-width:0.95407495pt;" />
  </g>
  <path
     d="M 297.99034,136.74154 L 297.99034,260.57234 L 297.99034,384.40315 L 297.99034,508.23395 L 297.99034,632.06475 L 410.99634,632.06475 L 524.00235,632.06475 L 637.00835,632.06475 L 750.01435,632.06475 L 750.01435,508.23395 L 750.01435,384.40315 L 750.01435,260.57234 L 637.00835,136.74154 L 524.00235,136.74154 L 410.99634,136.74154 L 297.99034,136.74154 z "
     id="rect900"
     sodipodi:nodetypes="cccccccccccccccc"
     style="fill:url(#linearGradient1495);fill-opacity:1;fill-rule:evenodd;stroke:#000000;stroke-width:1.4375000;stroke-opacity:0.36477986;"
     transform="matrix(0.296689,0.000000,0.000000,0.296689,-71.19601,-34.05825)" />
  <path
     d="M 750.01435,260.57234 C 715.94460,250.48602 671.79788,251.91624 638.44792,257.66516 C 644.20618,220.71628 644.92597,174.41021 637.00835,136.74154 L 750.01435,260.57234 z "
     id="path906"
     sodipodi:nodetypes="cccc"
     style="fill:url(#linearGradient1497);fill-opacity:1;fill-rule:evenodd;stroke-width:0.95407495pt;"
     transform="matrix(0.296689,0.000000,0.000000,0.296689,-71.19601,-34.05825)" />
  <path
     d="M 301.30655,174.90867 L 299.27069,628.90434 L 743.08709,628.90434 L 743.34157,516.67783 C 733.41677,520.49506 633.15091,378.49417 506.92790,384.60173 C 380.59029,390.71484 413.27857,193.23136 301.30655,174.90867 z "
     id="path1500"
     sodipodi:nodetypes="cccczc"
     style="fill:url(#linearGradient1499);fill-opacity:1;fill-rule:evenodd;stroke-width:1.0000000pt;"
     transform="matrix(0.296689,0.000000,0.000000,0.296689,-71.19601,-34.05825)" />
  <g
     id="g1285"
     style="fill-opacity:0.039999966;"
     transform="matrix(0.848892,0.000000,0.000000,0.853424,-141.0005,-53.51216)">
    <path
       d="M 262.65959,133.59795 C 235.88637,133.63503 222.55684,142.53903 222.40959,146.94170 C 222.40992,147.08594 222.46105,147.28491 222.47209,147.44170 C 222.46655,147.35337 222.41200,147.28098 222.40959,147.19170 C 221.68184,155.73606 222.67406,163.66268 224.84709,170.62920 C 213.86383,175.77094 206.99508,182.78575 206.90959,189.50420 C 206.90814,189.61833 206.87594,189.73405 206.87834,189.84795 C 206.76368,190.51665 206.67686,191.18506 206.69084,191.84795 C 206.95305,203.96203 214.41879,224.10547 263.34709,223.00420 C 308.84237,222.27276 316.91232,202.75885 317.87834,191.78545 C 317.88120,191.75294 317.90685,191.72406 317.90959,191.69170 C 318.04799,190.83463 318.04071,190.12168 318.09709,189.34795 C 318.14594,188.67754 318.25030,187.91011 318.25334,187.31670 C 318.26913,184.33166 315.52674,180.91763 311.15959,177.59795 C 316.43943,173.79245 320.59709,169.18172 320.59709,163.84795 C 320.59710,148.74468 307.37834,152.22295 307.37834,152.22295 L 301.81584,154.31670 C 301.95736,152.26829 302.09467,150.22392 302.06584,148.09795 C 301.94186,148.41750 301.62192,148.69547 301.44084,149.00420 C 301.56693,148.51159 301.64712,148.03712 301.59709,147.62920 C 301.11502,143.69850 289.21032,133.56086 262.65959,133.59795 z M 223.19084,150.03545 C 223.29561,150.27543 223.36805,150.50667 223.50334,150.75420 C 223.36670,150.52438 223.30183,150.27390 223.19084,150.03545 z M 311.56584,155.19170 C 313.30626,155.35394 314.93224,156.45466 316.19084,159.12920 C 318.75553,164.57916 312.76662,170.15213 306.25334,174.34795 C 304.00947,173.05538 301.54623,171.82000 298.81584,170.66045 C 299.69732,167.89882 300.34196,164.95157 300.87834,161.91045 C 302.21637,160.28658 307.05243,154.77096 311.56584,155.19170 z "
       id="path1258"
       style="fill-rule:evenodd;stroke-width:1.0000000pt;" />
    <path
       d="M 253.46875,135.62500 C 243.34953,137.08434 232.09613,138.37367 224.50000,145.96875 C 223.42930,150.94106 224.28333,156.05349 224.46875,161.40625 C 224.81143,165.95255 229.43985,172.39964 222.63209,173.73441 C 214.59617,177.83734 206.00306,185.83851 208.87038,195.81604 C 211.29725,210.91387 227.54825,218.84979 241.50320,219.85438 C 259.09113,222.40955 277.47408,221.65639 294.50000,216.37500 C 306.96931,212.28664 317.76908,200.51206 316.31250,186.75000 C 316.38046,181.97853 309.12855,181.37587 309.87500,176.87500 C 314.62760,172.72944 320.48212,167.59021 318.59375,160.46875 C 319.78728,157.05159 310.15996,152.03712 314.59375,154.75000 C 320.51577,158.78053 318.56317,167.90764 312.86116,171.22159 C 310.20636,174.59636 305.79880,177.19708 301.84481,174.21675 C 295.94059,172.56057 297.27049,165.61120 299.74827,161.56901 C 301.80101,157.15823 306.61886,154.14618 311.43750,153.68750 C 307.60824,151.88329 303.09076,158.12839 300.18750,154.62500 C 300.37462,149.69185 299.32439,143.96119 293.87452,142.27392 C 281.83705,134.98828 267.06557,135.13850 253.46875,135.62500 z "
       id="path1262"
       style="fill-rule:evenodd;stroke-width:1.0000000pt;" />
    <path
       d="M 253.18750,132.37500 C 242.05978,134.04426 229.07197,135.35288 221.53125,144.68750 C 219.31077,152.94439 221.46881,161.56482 222.71875,169.65625 C 216.49650,173.73849 208.79507,177.75990 206.40622,185.49726 C 201.84217,197.71040 210.15719,211.19661 220.93523,216.98333 C 235.48371,224.79392 252.74477,224.76539 268.85666,224.23090 C 284.99168,223.09445 303.57049,220.22760 313.89139,206.35768 C 318.47883,199.72382 321.84515,190.16262 318.18047,182.44269 C 316.22979,179.62381 311.46883,177.37591 316.82374,174.89244 C 324.38683,168.95976 324.16584,154.22421 314.29915,150.88427 C 310.64848,149.17022 307.15580,150.76995 303.59375,151.75000 C 304.56807,147.98820 303.14905,144.93433 300.18750,142.62500 C 287.03283,132.03223 269.27162,131.69853 253.18750,132.37500 z M 313.12500,157.59375 C 318.30191,162.99258 310.90111,170.17608 305.78462,171.99820 C 301.28909,172.36045 299.61961,167.40417 302.23660,164.27176 C 303.61649,160.21704 308.64122,155.87524 313.12500,157.59375 z "
       id="path1265"
       style="fill-rule:evenodd;stroke-width:1.0000000pt;" />
    <path
       d="M 244.21875,132.12500 C 235.26010,133.83351 225.37137,136.57158 219.90625,144.43750 C 218.07314,152.55048 219.71381,160.78102 220.93750,168.84375 C 211.90075,174.03920 201.99797,182.64624 203.83723,194.24881 C 204.83306,210.40951 220.47097,221.51653 235.45771,223.74515 C 254.29797,227.46672 274.05715,226.44662 292.68750,222.09375 C 307.55530,217.93851 321.89355,205.04110 321.10782,188.55949 C 321.11216,184.61743 319.53301,180.48285 316.46875,177.90625 C 319.81722,173.96788 323.87764,169.87819 323.68993,164.19201 C 324.78218,155.07106 315.80542,145.97349 306.56244,149.16594 C 304.26472,148.72218 304.83462,143.46940 301.69975,142.05950 C 288.29653,130.32213 269.09421,130.32554 252.25783,130.87511 C 249.57814,131.29174 246.89844,131.70837 244.21875,132.12500 z M 312.09375,159.06250 C 315.44556,163.96281 308.26967,170.79261 303.65625,169.46875 C 301.25762,165.11452 307.48970,158.25921 312.09375,159.06250 z "
       id="path1272"
       style="fill-rule:evenodd;stroke-width:1.0000000pt;" />
  </g>
  <path
     d="M 3.5553890,107.88655 C 3.2027590,94.595334 33.811129,79.789948 74.645809,79.285221 C 115.90364,78.780494 153.42359,94.595334 153.35307,105.19465 C 153.28253,116.13046 145.52465,140.35745 79.723689,141.19867 C 13.922739,142.37637 3.9080190,120.84126 3.5553890,107.88655 z "
     id="path834"
     sodipodi:nodetypes="czzzz"
     style="fill:url(#radialGradient861);fill-opacity:1;fill-rule:evenodd;stroke-width:1.1265265pt;"
     transform="matrix(0.848892,0.000000,0.000000,0.848892,14.23412,25.05099)" />
  <path
     d="M 21.999159,96.171440 C 21.736949,83.742700 44.496739,69.898040 74.860609,69.426060 C 105.53913,68.954080 133.43823,83.742700 133.38579,93.654220 C 133.33335,103.88040 127.56474,126.53531 78.636429,127.32194 C 29.708119,128.42321 22.261369,108.28552 21.999159,96.171440 z "
     id="path832"
     sodipodi:nodetypes="czzzz"
     style="fill:#ffffff;fill-rule:evenodd;stroke-width:1.0000000pt;"
     transform="matrix(0.848892,0.000000,0.000000,0.848892,14.23412,25.05099)" />
  <path
     d="M 22.179222,94.160811 C 21.917012,81.732071 44.676802,67.887407 75.040670,67.415427 C 105.71919,66.943447 133.61829,81.732071 133.56585,91.643591 C 133.51341,101.86977 127.74480,124.52468 78.816490,125.31131 C 29.888182,126.41258 22.441432,106.27489 22.179222,94.160811 z "
     id="path866"
     sodipodi:nodetypes="czzzz"
     style="fill:url(#linearGradient859);fill-rule:evenodd;stroke-width:1.0000000pt;"
     transform="matrix(0.848892,0.000000,0.000000,0.848892,14.23412,25.05099)" />
  <path
     d="M 40.714059,107.54384 C 40.542919,100.74529 55.397739,93.172230 75.215579,92.914050 C 95.238779,92.655880 113.44792,100.74529 113.41369,106.16692 C 113.37946,111.76066 109.61441,124.15295 77.679969,124.58324 C 45.745529,125.18564 40.885199,114.17028 40.714059,107.54384 z "
     id="path862"
     sodipodi:nodetypes="czzzz"
     style="fill:url(#radialGradient864);fill-opacity:1;fill-rule:evenodd;stroke-width:1.1265265pt;"
     transform="matrix(0.848892,0.000000,0.000000,0.848892,14.23412,25.05099)" />
  <g
     id="g1945"
     style=""
     transform="matrix(0.901695,0.000000,0.000000,0.901695,13.16120,158.7793)">
    <path
       d="M 51.104419,58.727910 C 63.113619,54.008130 84.765769,50.758279 101.65207,58.309920 C 104.31234,60.101030 110.19874,57.776050 107.74169,55.896040 C 102.23529,51.176270 86.109399,47.374232 76.119219,47.400453 C 66.129029,47.426674 53.306979,50.179874 47.800579,56.053370 C 46.231949,57.834850 48.779429,60.061320 51.104419,58.727910 z "
       id="path830"
       sodipodi:nodetypes="ccczcc"
       style="fill:url(#radialGradient856);fill-opacity:1;fill-rule:evenodd;stroke-width:1.0000000pt;"
       transform="matrix(0.941440,0.000000,0.000000,0.941440,1.189893,-148.3077)" />
    <path
       d="M 68.993539,-105.83780 C 66.401862,-120.09202 58.574159,-117.47270 63.892836,-129.06119 C 68.957281,-140.09575 74.147402,-147.34560 64.433852,-164.94339 C 83.528650,-156.82312 73.781747,-140.19524 80.534326,-127.50475 C 87.424524,-114.55563 76.472067,-115.06236 68.993539,-105.83780 z "
       id="path1936"
       sodipodi:nodetypes="czczc"
       style="fill:url(#linearGradient1556);fill-opacity:1;fill-rule:evenodd;stroke-width:1.0000000pt;" />
    <path
       d="M 83.067157,-135.61084 C 83.067157,-135.61084 86.280164,-140.53900 82.237056,-145.59696 C 78.253406,-150.58052 88.943288,-151.70601 86.299069,-165.51925 C 97.036460,-163.79069 93.443425,-134.76945 83.067157,-135.61084 z "
       id="path1937"
       sodipodi:nodetypes="czcc"
       style="fill-opacity:0.044025127;fill-rule:evenodd;stroke-width:1.0000000pt;fill:#000000;" />
  </g>
  <path
     style="font-size:12px;font-style:normal;font-weight:normal;fill:#000000;fill-opacity:1;stroke:none;stroke-width:1pt;stroke-linecap:butt;stroke-linejoin:miter;stroke-opacity:1;font-family:Bitstream Vera Sans"
     d="M 21.827415,178.21799 L 22.852806,178.07736 C 22.880148,178.73361 23.003195,179.18283 23.221947,179.42502 C 23.440695,179.66721 23.743429,179.7883 24.13015,179.7883 C 24.415303,179.7883 24.661397,179.72287 24.868431,179.59201 C 25.075459,179.46115 25.218037,179.28342 25.296165,179.05881 C 25.374287,178.8342 25.413349,178.4758 25.413353,177.98361 L 25.413353,172.06564 L 26.550072,172.06564 L 26.550072,177.91916 C 26.550067,178.63791 26.463153,179.19455 26.28933,179.58908 C 26.115497,179.98361 25.840106,180.28439 25.463158,180.49142 C 25.086201,180.69846 24.643819,180.80197 24.136009,180.80197 C 23.382101,180.80197 22.804953,180.58517 22.404564,180.15158 C 22.004173,179.71799 21.81179,179.07346 21.827415,178.21799 L 21.827415,178.21799 z M 32.333275,179.88791 C 31.942645,180.21994 31.566669,180.45432 31.205345,180.59103 C 30.844014,180.72775 30.456319,180.79611 30.042259,180.79611 C 29.358664,180.79611 28.833273,180.62912 28.466087,180.29514 C 28.098899,179.96115 27.915306,179.53439 27.915306,179.01486 C 27.915306,178.71018 27.984642,178.43186 28.123314,178.1799 C 28.261985,177.92795 28.443625,177.7258 28.668236,177.57346 C 28.892844,177.42112 29.145773,177.30588 29.427025,177.22775 C 29.634054,177.17307 29.946554,177.12033 30.364525,177.06955 C 31.216084,176.96799 31.843036,176.8469 32.245384,176.70627 C 32.249286,176.56174 32.251239,176.46994 32.251244,176.43088 C 32.251239,176.00119 32.15163,175.69846 31.952415,175.52267 C 31.68288,175.2844 31.28249,175.16526 30.751244,175.16525 C 30.255147,175.16526 29.888936,175.25217 29.652611,175.42599 C 29.416281,175.59983 29.241476,175.90744 29.128197,176.34885 L 28.096947,176.20822 C 28.190696,175.76682 28.344993,175.41038 28.559837,175.13889 C 28.77468,174.86741 29.085226,174.65842 29.491478,174.51193 C 29.897726,174.36545 30.368428,174.29221 30.903587,174.29221 C 31.434833,174.29221 31.866474,174.35471 32.198509,174.47971 C 32.530535,174.60471 32.774676,174.76194 32.930931,174.95139 C 33.087175,175.14084 33.19655,175.3801 33.259056,175.66916 C 33.294207,175.84885 33.311785,176.17307 33.31179,176.64182 L 33.31179,178.04807 C 33.311785,179.02854 33.334246,179.64865 33.379173,179.90842 C 33.424089,180.16818 33.512956,180.41721 33.645775,180.65549 L 32.544212,180.65549 C 32.434832,180.43674 32.36452,180.18088 32.333275,179.88791 L 32.333275,179.88791 z M 32.245384,177.53244 C 31.862567,177.68869 31.288349,177.82151 30.522728,177.93088 C 30.089132,177.99338 29.782491,178.06369 29.602806,178.14182 C 29.423117,178.21994 29.284445,178.3342 29.18679,178.48459 C 29.089133,178.63498 29.040305,178.80197 29.040306,178.98557 C 29.040305,179.26682 29.14675,179.50119 29.359642,179.68869 C 29.572531,179.87619 29.884054,179.96994 30.294212,179.96994 C 30.700459,179.96994 31.061787,179.88107 31.378197,179.70334 C 31.694599,179.52561 31.92702,179.28244 32.075462,178.97385 C 32.188739,178.73557 32.245379,178.384 32.245384,177.91916 L 32.245384,177.53244 z M 36.680931,180.65549 L 34.313744,174.43283 L 35.427025,174.43283 L 36.762962,178.15939 C 36.907491,178.56174 37.040303,178.97971 37.1614,179.4133 C 37.255147,179.08518 37.386006,178.69065 37.553978,178.22971 L 38.93679,174.43283 L 40.020775,174.43283 L 37.665306,180.65549 L 36.680931,180.65549 z M 45.012962,179.88791 C 44.622333,180.21994 44.246357,180.45432 43.885033,180.59103 C 43.523701,180.72775 43.136006,180.79611 42.721947,180.79611 C 42.038351,180.79611 41.512961,180.62912 41.145775,180.29514 C 40.778587,179.96115 40.594993,179.53439 40.594994,179.01486 C 40.594993,178.71018 40.664329,178.43186 40.803001,178.1799 C 40.941672,177.92795 41.123313,177.7258 41.347923,177.57346 C 41.572531,177.42112 41.825461,177.30588 42.106712,177.22775 C 42.313741,177.17307 42.626241,177.12033 43.044212,177.06955 C 43.895771,176.96799 44.522724,176.8469 44.925072,176.70627 C 44.928973,176.56174 44.930926,176.46994 44.930931,176.43088 C 44.930926,176.00119 44.831317,175.69846 44.632103,175.52267 C 44.362568,175.2844 43.962177,175.16526 43.430931,175.16525 C 42.934835,175.16526 42.568624,175.25217 42.332298,175.42599 C 42.095968,175.59983 41.921164,175.90744 41.807884,176.34885 L 40.776634,176.20822 C 40.870384,175.76682 41.02468,175.41038 41.239525,175.13889 C 41.454367,174.86741 41.764914,174.65842 42.171165,174.51193 C 42.577413,174.36545 43.048116,174.29221 43.583275,174.29221 C 44.114521,174.29221 44.546161,174.35471 44.878197,174.47971 C 45.210223,174.60471 45.454363,174.76194 45.610619,174.95139 C 45.766863,175.14084 45.876238,175.3801 45.938744,175.66916 C 45.973894,175.84885 45.991472,176.17307 45.991478,176.64182 L 45.991478,178.04807 C 45.991472,179.02854 46.013933,179.64865 46.058861,179.90842 C 46.103777,180.16818 46.192644,180.41721 46.325462,180.65549 L 45.2239,180.65549 C 45.11452,180.43674 45.044207,180.18088 45.012962,179.88791 L 45.012962,179.88791 z M 44.925072,177.53244 C 44.542255,177.68869 43.968037,177.82151 43.202415,177.93088 C 42.768819,177.99338 42.462179,178.06369 42.282494,178.14182 C 42.102804,178.21994 41.964132,178.3342 41.866478,178.48459 C 41.76882,178.63498 41.719992,178.80197 41.719994,178.98557 C 41.719992,179.26682 41.826437,179.50119 42.03933,179.68869 C 42.252218,179.87619 42.563741,179.96994 42.9739,179.96994 C 43.380147,179.96994 43.741474,179.88107 44.057884,179.70334 C 44.374286,179.52561 44.606708,179.28244 44.75515,178.97385 C 44.868426,178.73557 44.925067,178.384 44.925072,177.91916 L 44.925072,177.53244 z M 57.2239,177.64377 L 58.360619,177.93088 C 58.122329,178.86447 57.693619,179.57639 57.074486,180.06662 C 56.455339,180.55685 55.698504,180.80197 54.803978,180.80197 C 53.878193,180.80197 53.125264,180.61349 52.545189,180.23654 C 51.965109,179.85959 51.523703,179.31369 51.22097,178.59885 C 50.918235,177.88401 50.766868,177.11643 50.766869,176.29611 C 50.766868,175.40159 50.937766,174.62131 51.279564,173.95529 C 51.621359,173.28928 52.107687,172.78342 52.738548,172.43771 C 53.369404,172.09202 54.06374,171.91917 54.821556,171.91916 C 55.680926,171.91917 56.403581,172.13792 56.989525,172.57541 C 57.575455,173.01292 57.983658,173.62815 58.214134,174.42111 L 57.094994,174.68478 C 56.895768,174.05979 56.606706,173.60471 56.227806,173.31955 C 55.848894,173.0344 55.372332,172.89182 54.798119,172.89182 C 54.137958,172.89182 53.586201,173.05003 53.142845,173.36642 C 52.699483,173.68284 52.38796,174.10764 52.208275,174.64084 C 52.028585,175.17405 51.938742,175.72385 51.938744,176.29025 C 51.938742,177.02073 52.045187,177.65842 52.25808,178.20334 C 52.470968,178.74826 52.802022,179.15549 53.251244,179.42502 C 53.700459,179.69455 54.186786,179.82932 54.710228,179.82932 C 55.346942,179.82932 55.886003,179.64572 56.327415,179.27853 C 56.768815,178.91135 57.067643,178.36643 57.2239,177.64377 L 57.2239,177.64377 z M 59.608665,180.65549 L 59.608665,172.06564 L 60.663353,172.06564 L 60.663353,180.65549 L 59.608665,180.65549 z M 66.364525,179.88791 C 65.973895,180.21994 65.597919,180.45432 65.236595,180.59103 C 64.875264,180.72775 64.487569,180.79611 64.073509,180.79611 C 63.389914,180.79611 62.864523,180.62912 62.497337,180.29514 C 62.130149,179.96115 61.946556,179.53439 61.946556,179.01486 C 61.946556,178.71018 62.015892,178.43186 62.154564,178.1799 C 62.293235,177.92795 62.474875,177.7258 62.699486,177.57346 C 62.924094,177.42112 63.177023,177.30588 63.458275,177.22775 C 63.665304,177.17307 63.977804,177.12033 64.395775,177.06955 C 65.247334,176.96799 65.874286,176.8469 66.276634,176.70627 C 66.280536,176.56174 66.282489,176.46994 66.282494,176.43088 C 66.282489,176.00119 66.18288,175.69846 65.983665,175.52267 C 65.71413,175.2844 65.31374,175.16526 64.782494,175.16525 C 64.286397,175.16526 63.920186,175.25217 63.683861,175.42599 C 63.447531,175.59983 63.272726,175.90744 63.159447,176.34885 L 62.128197,176.20822 C 62.221946,175.76682 62.376243,175.41038 62.591087,175.13889 C 62.80593,174.86741 63.116476,174.65842 63.522728,174.51193 C 63.928976,174.36545 64.399678,174.29221 64.934837,174.29221 C 65.466083,174.29221 65.897724,174.35471 66.229759,174.47971 C 66.561785,174.60471 66.805926,174.76194 66.962181,174.95139 C 67.118425,175.14084 67.2278,175.3801 67.290306,175.66916 C 67.325457,175.84885 67.343035,176.17307 67.34304,176.64182 L 67.34304,178.04807 C 67.343035,179.02854 67.365496,179.64865 67.410423,179.90842 C 67.455339,180.16818 67.544206,180.41721 67.677025,180.65549 L 66.575462,180.65549 C 66.466082,180.43674 66.39577,180.18088 66.364525,179.88791 L 66.364525,179.88791 z M 66.276634,177.53244 C 65.893817,177.68869 65.319599,177.82151 64.553978,177.93088 C 64.120382,177.99338 63.813741,178.06369 63.634056,178.14182 C 63.454367,178.21994 63.315695,178.3342 63.21804,178.48459 C 63.120383,178.63498 63.071555,178.80197 63.071556,178.98557 C 63.071555,179.26682 63.178,179.50119 63.390892,179.68869 C 63.603781,179.87619 63.915304,179.96994 64.325462,179.96994 C 64.731709,179.96994 65.093037,179.88107 65.409447,179.70334 C 65.725849,179.52561 65.95827,179.28244 66.106712,178.97385 C 66.219989,178.73557 66.276629,178.384 66.276634,177.91916 L 66.276634,177.53244 z M 68.56179,178.79807 L 69.604759,178.634 C 69.663351,179.05197 69.826437,179.37229 70.094017,179.59494 C 70.361593,179.8176 70.735616,179.92893 71.216087,179.92892 C 71.700459,179.92893 72.059833,179.83029 72.294212,179.63303 C 72.528583,179.43576 72.64577,179.20432 72.645775,178.93869 C 72.64577,178.70041 72.542255,178.51291 72.335228,178.37619 C 72.190693,178.28244 71.831318,178.1633 71.257103,178.01877 C 70.483663,177.82346 69.947531,177.65451 69.648705,177.51193 C 69.349875,177.36936 69.123313,177.17209 68.969017,176.92014 C 68.81472,176.66819 68.737571,176.38987 68.737572,176.08517 C 68.737571,175.80784 68.801048,175.551 68.928001,175.31467 C 69.054954,175.07834 69.227805,174.88206 69.446556,174.7258 C 69.610617,174.60471 69.83425,174.50217 70.117455,174.41818 C 70.400655,174.3342 70.704366,174.29221 71.028587,174.29221 C 71.516865,174.29221 71.945576,174.36252 72.31472,174.50314 C 72.683856,174.64377 72.956317,174.8342 73.132103,175.07443 C 73.307879,175.31467 73.428973,175.63596 73.495384,176.0383 L 72.464134,176.17892 C 72.417255,175.85862 72.281513,175.60862 72.056908,175.42892 C 71.832295,175.24924 71.514912,175.1594 71.104759,175.15939 C 70.620382,175.1594 70.274679,175.23948 70.06765,175.39963 C 69.860617,175.55979 69.757101,175.74729 69.757103,175.96213 C 69.757101,176.09885 69.80007,176.2219 69.886009,176.33127 C 69.971945,176.44455 70.10671,176.5383 70.290306,176.61252 C 70.395773,176.65158 70.706319,176.74143 71.221947,176.88205 C 71.968037,177.08127 72.488544,177.24436 72.78347,177.37131 C 73.078387,177.49826 73.309832,177.68283 73.477806,177.92502 C 73.645769,178.16721 73.729754,178.46799 73.729759,178.82736 C 73.729754,179.17893 73.627215,179.50998 73.422142,179.82053 C 73.217059,180.13107 72.921161,180.37131 72.534447,180.54123 C 72.147724,180.71115 71.710224,180.79611 71.221947,180.79611 C 70.413351,180.79611 69.79714,180.62814 69.373314,180.29221 C 68.949485,179.95627 68.678977,179.45822 68.56179,178.79807 L 68.56179,178.79807 z M 74.56179,178.79807 L 75.604759,178.634 C 75.663351,179.05197 75.826437,179.37229 76.094017,179.59494 C 76.361593,179.8176 76.735616,179.92893 77.216087,179.92892 C 77.700459,179.92893 78.059833,179.83029 78.294212,179.63303 C 78.528583,179.43576 78.64577,179.20432 78.645775,178.93869 C 78.64577,178.70041 78.542255,178.51291 78.335228,178.37619 C 78.190693,178.28244 77.831318,178.1633 77.257103,178.01877 C 76.483663,177.82346 75.947531,177.65451 75.648705,177.51193 C 75.349875,177.36936 75.123313,177.17209 74.969017,176.92014 C 74.81472,176.66819 74.737571,176.38987 74.737572,176.08517 C 74.737571,175.80784 74.801048,175.551 74.928001,175.31467 C 75.054954,175.07834 75.227805,174.88206 75.446556,174.7258 C 75.610617,174.60471 75.83425,174.50217 76.117455,174.41818 C 76.400655,174.3342 76.704366,174.29221 77.028587,174.29221 C 77.516865,174.29221 77.945576,174.36252 78.31472,174.50314 C 78.683856,174.64377 78.956317,174.8342 79.132103,175.07443 C 79.307879,175.31467 79.428973,175.63596 79.495384,176.0383 L 78.464134,176.17892 C 78.417255,175.85862 78.281513,175.60862 78.056908,175.42892 C 77.832295,175.24924 77.514912,175.1594 77.104759,175.15939 C 76.620382,175.1594 76.274679,175.23948 76.06765,175.39963 C 75.860617,175.55979 75.757101,175.74729 75.757103,175.96213 C 75.757101,176.09885 75.80007,176.2219 75.886009,176.33127 C 75.971945,176.44455 76.10671,176.5383 76.290306,176.61252 C 76.395773,176.65158 76.706319,176.74143 77.221947,176.88205 C 77.968037,177.08127 78.488544,177.24436 78.78347,177.37131 C 79.078387,177.49826 79.309832,177.68283 79.477806,177.92502 C 79.645769,178.16721 79.729754,178.46799 79.729759,178.82736 C 79.729754,179.17893 79.627215,179.50998 79.422142,179.82053 C 79.217059,180.13107 78.921161,180.37131 78.534447,180.54123 C 78.147724,180.71115 77.710224,180.79611 77.221947,180.79611 C 76.413351,180.79611 75.79714,180.62814 75.373314,180.29221 C 74.949485,179.95627 74.678977,179.45822 74.56179,178.79807 L 74.56179,178.79807 z"
     id="text1975" />
  <path
     d="M 37.698609,51.263530 C 37.845849,46.860858 51.196479,37.951080 77.969699,37.913998 C 104.52044,37.876916 116.42377,48.000312 116.90584,51.931010 C 117.38790,55.861700 110.75022,64.353490 76.634749,65.280540 C 42.296779,66.207590 37.708699,55.666200 37.698609,51.263530 z "
     id="path828"
     sodipodi:nodetypes="czzzz"
     style="fill:url(#linearGradient850);fill-opacity:1;fill-rule:evenodd;stroke-width:1.0000000pt;"
     transform="matrix(0.848892,0.000000,0.000000,0.848892,14.23412,25.05099)" />
  <path
     d="M 115.45066,67.066170 C 115.45066,67.066170 126.46346,52.749530 131.49788,63.447680 C 136.53231,74.145830 108.52832,85.473280 108.52832,85.473280 L 103.17924,93.024920 C 103.17924,93.024920 135.90300,83.270730 135.90300,68.167450 C 135.90300,53.064180 122.68764,56.525350 122.68764,56.525350 L 116.07996,59.042560 L 115.45066,67.066170 z "
     id="path826"
     sodipodi:nodetypes="cccccccc"
     style="fill:url(#linearGradient858);fill-opacity:1;fill-rule:evenodd;stroke-width:1.0000000pt;"
     transform="matrix(0.848892,0.000000,0.000000,0.848892,14.23412,25.05099)" />
  <path
     d="M 39.262509,52.412400 C 38.780449,48.481707 53.205359,39.544936 76.641209,39.285362 C 100.29954,39.025788 113.98281,46.924261 114.46488,50.854957 C 114.94695,54.785650 108.53176,61.942490 79.533609,62.869540 C 50.757949,63.796590 39.744579,56.343100 39.262509,52.412400 z "
     id="path827"
     sodipodi:nodetypes="czzzz"
     style="fill:url(#linearGradient851);fill-opacity:1;fill-rule:evenodd;stroke-width:1.0000000pt;"
     transform="matrix(0.848892,0.000000,0.000000,0.848892,14.23412,25.05099)" />
  <path
     d="M 43.044879,56.862250 C 42.525729,53.969850 53.519479,45.848882 74.861269,45.737636 C 96.360379,45.469064 110.16337,53.302370 110.68251,56.194770 C 111.20166,59.087170 90.665029,62.823460 77.976159,63.092030 C 65.287289,63.203270 43.564029,59.754650 43.044879,56.862250 z "
     id="path829"
     sodipodi:nodetypes="czzzz"
     style="fill:url(#linearGradient860);fill-rule:evenodd;stroke-width:1.0000000pt;"
     transform="matrix(0.848892,0.000000,0.000000,0.848892,14.23412,25.05099)" />
  <path
     d="M 37.705069,51.522430 C 35.702639,75.032440 46.641839,93.944280 59.731799,100.69321 C 72.821749,107.44214 85.170069,106.29260 96.887999,99.358260 C 108.60592,92.423920 117.65394,74.290800 117.35728,52.412400 C 111.40616,67.750740 38.224219,70.730930 37.705069,51.522430 z "
     id="path831"
     sodipodi:nodetypes="czzcc"
     style="fill:url(#linearGradient849);fill-opacity:1;fill-rule:evenodd;stroke-width:1.0000000pt;"
     transform="matrix(0.848892,0.000000,0.000000,0.848892,14.23412,25.05099)" />
  <path
     d="M 41.822199,110.01610 C 31.543589,109.43924 21.736949,103.72308 24.516369,92.395620 C 27.295789,80.753510 45.702899,74.827580 53.149649,75.089790 C 60.596409,75.351990 71.032349,88.305150 69.196879,93.968870 C 67.361409,99.632600 52.415469,110.90762 41.822199,110.01610 z "
     id="path833"
     sodipodi:nodetypes="czzzz"
     style="fill:url(#linearGradient840);fill-opacity:1;fill-rule:evenodd;stroke-width:1.0000000pt;"
     transform="matrix(0.848892,0.000000,0.000000,0.848892,14.23412,25.05099)" />
  <path
     d="M 91.548179,77.999000 C 94.663079,76.886540 108.68008,75.996580 111.79497,62.202060 C 113.35242,74.661620 109.27947,80.540300 107.79012,84.006300 C 106.30077,87.694780 94.102549,100.47735 93.773109,97.578320 L 91.548179,77.999000 z "
     id="path835"
     sodipodi:nodetypes="cczzc"
     style="fill:url(#linearGradient845);fill-opacity:1;fill-rule:evenodd;stroke-width:1.0000000pt;"
     transform="matrix(0.848892,0.000000,0.000000,0.848892,14.23412,25.05099)" />
  <path
     d="M 42.377409,77.776520 C 40.226649,75.477430 37.482579,57.307230 38.595039,59.977140 C 39.485009,62.647040 47.939709,67.282300 51.054599,66.429410 C 53.946999,65.576520 58.026029,82.115110 52.389559,84.006300 C 46.530589,85.897480 44.528159,79.853110 42.377409,77.776520 z "
     id="path836"
     sodipodi:nodetypes="czzzz"
     style="fill:url(#linearGradient844);fill-opacity:1;fill-rule:evenodd;stroke-width:1.0000000pt;"
     transform="matrix(0.848892,0.000000,0.000000,0.848892,14.23412,25.05099)" />
  <path
     d="M 117.30830,58.950400 L 116.98574,62.096910 C 116.51376,65.086100 127.27708,51.851650 132.46883,63.808410 C 132.97898,66.632370 132.44183,70.212690 132.44183,70.212690 C 132.44183,70.212690 135.40403,66.819960 134.80172,63.605010 C 131.26421,51.932630 119.53322,57.949180 117.30830,58.950400 z "
     id="path857"
     sodipodi:nodetypes="cccccc"
     style="fill:url(#linearGradient852);fill-opacity:1;fill-rule:evenodd;stroke-width:1.0000000pt;"
     transform="matrix(0.848892,0.000000,0.000000,0.848892,14.23412,25.05099)" />
</svg>
